<svg xmlns="http://www.w3.org/2000/svg" xmlns:svg="http://www.w3.org/2000/svg" xmlns:xlink="http://www.w3.org/1999/xlink" version="1.0" height="750pt" width="1030pt" viewBox="185 267 1038 756" ><defs><style type="text/css">
            @font-face {
                font-family: 'noto_regular';
                src: url('https://app.creately.com/diagram/assets/fonts/noto/noto-regular.woff') format('woff'),
                     url('https://app.creately.com/diagram/assets/fonts/noto/noto-regular.woff2') format('woff2');
                font-weight: normal;
                font-style: normal;
            }
        p {
            margin: 0;
        }
        </style></defs><defs><style>
            span{ display: inline-block; }
        </style></defs><g id="1vwjw5qvx3"><g><path d="M 821,548 L 821,548" fill="none" stroke="#a0a0a0" stroke-width="1.5" stroke-linecap="round" stroke-linejoin="round"/></g></g><g id="1uck061nsl"><g transform="translate(890 400)"><ellipse cx="50" cy="25" rx="50" ry="25" fill="rgba(255,255,255,1)" stroke="#a0a0a0" stroke-width="1.5" stroke-linecap="round" stroke-linejoin="round"/></g><g transform="translate(900.5, 407.5) rotate(0, 39.5, 17.5)" width="79" height="35"><text text-decoration="none" x="2.5" fill="rgb(0, 0, 0)" font-size="10pt" font-family="Lato"  y="14">subscription&#160;</text><text text-decoration="none" x="26" fill="rgb(0, 0, 0)" font-size="10pt" font-family="Lato"  y="36">date</text><text text-decoration="none" x="53" fill="#4b4b4b" font-size="10pt" font-family="noto_regular"  y="36"></text></g></g><g id="970283ei1u"><g><path d="M 1040,505 L 970,445" fill="none" stroke="#a0a0a0" stroke-width="1.5" stroke-linecap="round" stroke-linejoin="round"/></g></g><g id="fj46fjsdej"><g transform="translate(990 340)"><ellipse cx="50" cy="25" rx="50" ry="25" fill="rgba(255,255,255,1)" stroke="#a0a0a0" stroke-width="1.5" stroke-linecap="round" stroke-linejoin="round"/></g><g transform="translate(1000.5, 347.5) rotate(0, 39.5, 17.5)" width="79" height="35"><text text-decoration="none" x="2.5" fill="rgb(0, 0, 0)" font-size="10pt" font-family="Lato"  y="14">subscription&#160;</text><text text-decoration="none" x="26" fill="rgb(0, 0, 0)" font-size="10pt" font-family="Lato"  y="36">type</text><text text-decoration="none" x="53" fill="#4b4b4b" font-size="10pt" font-family="noto_regular"  y="36"></text></g></g><g id="114zhy581v"><g><path d="M 1040,505 L 1040,390" fill="none" stroke="#a0a0a0" stroke-width="1.5" stroke-linecap="round" stroke-linejoin="round"/></g></g><g id="3jc2wcxcdt"><g transform="translate(1080 400)"><ellipse cx="50" cy="25" rx="50" ry="25" fill="rgba(255,255,255,1)" stroke="#a0a0a0" stroke-width="1.5" stroke-linecap="round" stroke-linejoin="round"/></g><g transform="translate(1114, 415.5) rotate(0, 16, 9.5)" width="32" height="19"><text text-decoration="none" x="1.5" fill="rgb(0, 0, 0)" font-size="10pt" font-family="Lato"  y="17">price</text><text text-decoration="none" x="30.5" fill="#4b4b4b" font-size="10pt" font-family="noto_regular"  y="17"></text></g></g><g id="8vs3ee62hq"><g><path d="M 1040,505 L 1100,445" fill="none" stroke="#a0a0a0" stroke-width="1.5" stroke-linecap="round" stroke-linejoin="round"/></g></g><g id="189bnou3qz"><g transform="translate(955 805)"><rect x="0" y="0" width="170.00000476837158" height="85.00000238418579" fill="rgba(255,255,255,1)" stroke="#a0a0a0" stroke-width="1.5" stroke-linecap="round" stroke-linejoin="round"/></g><g transform="translate(985.0000023841858, 828.5000011920929) rotate(0, 55, 19)" width="110" height="38"><text text-decoration="none" x="3" fill="rgb(0, 0, 0)" font-size="12pt" font-family="Lato"  y="17">TV&#160;</text><text text-decoration="none" x="26" fill="rgb(0, 0, 0)" font-size="12pt" font-family="Lato"  y="17">shows&#160;</text><text text-decoration="none" x="78" fill="rgb(0, 0, 0)" font-size="12pt" font-family="Lato"  y="17">and&#160;</text><text text-decoration="none" x="28" fill="rgb(0, 0, 0)" font-size="12pt" font-family="Lato"  y="39">movies</text><text text-decoration="none" x="82" fill="#4b4b4b" font-size="10pt" font-family="noto_regular"  y="39"></text></g></g><g id="2aifheu2op"><g transform="translate(875 905)"><ellipse cx="50" cy="25" rx="50" ry="25" fill="rgba(255,255,255,1)" stroke="#a0a0a0" stroke-width="1.5" stroke-linecap="round" stroke-linejoin="round"/></g><g transform="translate(895.5, 920.5) rotate(0, 29.5, 9.5)" width="59" height="19"><text text-decoration="none" x="3" fill="rgb(0, 0, 0)" font-size="10pt" font-family="Lato"  y="17">movie&#160;</text><text text-decoration="none" x="43" fill="rgb(0, 0, 0)" font-size="10pt" font-family="Lato"  y="17">ID</text><text text-decoration="none" x="56" fill="#4b4b4b" font-size="10pt" font-family="noto_regular"  y="17"></text></g></g><g id="pqk5mw73gk"><g><path d="M 1041.0499999999997,887.9499999999998 L 955,910" fill="none" stroke="#a0a0a0" stroke-width="1.5" stroke-linecap="round" stroke-linejoin="round"/></g></g><g id="1jsxnta6mk"><g transform="translate(930 970)"><ellipse cx="50" cy="25" rx="50" ry="25" fill="rgba(255,255,255,1)" stroke="#a0a0a0" stroke-width="1.5" stroke-linecap="round" stroke-linejoin="round"/></g><g transform="translate(944.5, 985.5) rotate(0, 35.5, 9.5)" width="71" height="19"><text text-decoration="none" x="4" fill="rgb(0, 0, 0)" font-size="10pt" font-family="Lato"  y="17">movie&#160;</text><text text-decoration="none" x="44" fill="rgb(0, 0, 0)" font-size="10pt" font-family="Lato"  y="17">title</text><text text-decoration="none" x="67" fill="#4b4b4b" font-size="10pt" font-family="noto_regular"  y="17"></text></g></g><g id="27e5g4gf59"><g><path d="M 1040,890 L 1010,975" fill="none" stroke="#a0a0a0" stroke-width="1.5" stroke-linecap="round" stroke-linejoin="round"/></g></g><g id="2b84whj7cm"><g transform="translate(1055 970)"><ellipse cx="50" cy="25" rx="50" ry="25" fill="rgba(255,255,255,1)" stroke="#a0a0a0" stroke-width="1.5" stroke-linecap="round" stroke-linejoin="round"/></g><g transform="translate(1064.5, 985.5) rotate(0, 40.5, 9.5)" width="81" height="19"><text text-decoration="none" x="4.5" fill="rgb(0, 0, 0)" font-size="10pt" font-family="Lato"  y="17">release&#160;</text><text text-decoration="none" x="49.5" fill="rgb(0, 0, 0)" font-size="10pt" font-family="Lato"  y="17">date</text><text text-decoration="none" x="76.5" fill="#4b4b4b" font-size="10pt" font-family="noto_regular"  y="17"></text></g></g><g id="22d0rd1o2g"><g><path d="M 1040,890 L 1075,975" fill="none" stroke="#a0a0a0" stroke-width="1.5" stroke-linecap="round" stroke-linejoin="round"/></g></g><g id="2c2636b6e7"><g transform="translate(1120 900)"><ellipse cx="50" cy="22.499999403953552" rx="50" ry="22.499999403953552" fill="rgba(255,255,255,1)" stroke="#a0a0a0" stroke-width="1.5" stroke-linecap="round" stroke-linejoin="round"/></g><g transform="translate(1151, 912.9999994039536) rotate(0, 19, 9.5)" width="38" height="19"><text text-decoration="none" x="1.5" fill="rgb(0, 0, 0)" font-size="10pt" font-family="Lato"  y="17">rating</text><text text-decoration="none" x="36.5" fill="#4b4b4b" font-size="10pt" font-family="noto_regular"  y="17"></text></g></g><g id="17wpwwpkkh"><g><path d="M 1040,890 L 1120,920" fill="none" stroke="#a0a0a0" stroke-width="1.5" stroke-linecap="round" stroke-linejoin="round"/></g></g><g id="7nwaj8vzkn"><g transform="translate(270 805)"><rect x="0" y="0" width="170.00000476837158" height="85.00000238418579" fill="rgba(255,255,255,1)" stroke="#a0a0a0" stroke-width="1.5" stroke-linecap="round" stroke-linejoin="round"/></g><g transform="translate(331.5000023841858, 838.0000011920929) rotate(0, 23.5, 9.5)" width="47" height="19"><text text-decoration="none" x="1.5" fill="rgb(0, 0, 0)" font-size="12pt" font-family="Lato"  y="17">genre</text><text text-decoration="none" x="45.5" fill="#4b4b4b" font-size="10pt" font-family="noto_regular"  y="17"></text></g></g><g id="2jvf5zn6j3"><g transform="translate(640 820)"><path d="M 130,30 L 65,60 L 0,30 L 65,0 L 130,30 L 130,30 Z" fill="rgba(255,255,255,1)" stroke="#a0a0a0" stroke-width="1.5" stroke-linecap="round" stroke-linejoin="round"/></g><g transform="translate(671, 840.5) rotate(0, 34, 9.5)" width="68" height="19"><text text-decoration="none" x="2.5" fill="rgb(0, 0, 0)" font-size="10pt" font-family="Lato"  y="17">belongs&#160;</text><text text-decoration="none" x="52.5" fill="rgb(0, 0, 0)" font-size="10pt" font-family="Lato"  y="17">to</text><text text-decoration="none" x="65.5" fill="#4b4b4b" font-size="10pt" font-family="noto_regular"  y="17"></text></g></g><g id="2gqb60emo1"><g transform="translate(215 955)"><ellipse cx="50" cy="25" rx="50" ry="25" fill="rgba(255,255,255,1)" stroke="#a0a0a0" stroke-width="1.5" stroke-linecap="round" stroke-linejoin="round"/></g><g transform="translate(237.5, 970.5) rotate(0, 27.5, 9.5)" width="55" height="19"><text text-decoration="none" x="2.5" fill="rgb(0, 0, 0)" font-size="10pt" font-family="Lato"  y="17">genre&#160;</text><text text-decoration="none" x="39.5" fill="rgb(0, 0, 0)" font-size="10pt" font-family="Lato"  y="17">ID</text><text text-decoration="none" x="52.5" fill="#4b4b4b" font-size="10pt" font-family="noto_regular"  y="17"></text></g></g><g id="7y8ezo1z7b"><g><path d="M 355,890 L 295,960" fill="none" stroke="#a0a0a0" stroke-width="1.5" stroke-linecap="round" stroke-linejoin="round"/></g></g><g id="9tl1oofkwf"><g transform="translate(380 955)"><ellipse cx="50" cy="25" rx="50" ry="25" fill="rgba(255,255,255,1)" stroke="#a0a0a0" stroke-width="1.5" stroke-linecap="round" stroke-linejoin="round"/></g><g transform="translate(394, 962.5) rotate(0, 36, 17.5)" width="72" height="35"><text text-decoration="none" x="19" fill="rgb(0, 0, 0)" font-size="10pt" font-family="Lato"  y="14">genre&#160;</text><text text-decoration="none" x="2.5" fill="rgb(0, 0, 0)" font-size="10pt" font-family="Lato"  y="36">description</text><text text-decoration="none" x="69.5" fill="#4b4b4b" font-size="10pt" font-family="noto_regular"  y="36"></text></g></g><g id="2i45j3pp08"><g><path d="M 355,890 L 400,960" fill="none" stroke="#a0a0a0" stroke-width="1.5" stroke-linecap="round" stroke-linejoin="round"/></g></g><g id="2jef5s1wqf"><g transform="translate(650 515)"><path d="M 130,30 L 65,60 L 0,30 L 65,0 L 130,30 L 130,30 Z" fill="rgba(255,255,255,1)" stroke="#a0a0a0" stroke-width="1.5" stroke-linecap="round" stroke-linejoin="round"/></g><g transform="translate(703.5, 535.5) rotate(0, 11.5, 9.5)" width="23" height="19"><text text-decoration="none" x="1" fill="rgb(0, 0, 0)" font-size="10pt" font-family="Lato"  y="17">has</text><text text-decoration="none" x="22" fill="#4b4b4b" font-size="10pt" font-family="noto_regular"  y="17"></text></g></g><g id="lfihvm2w6o"><g transform="translate(190 400)"><ellipse cx="50" cy="25" rx="50" ry="25" fill="rgba(255,255,255,1)" stroke="#a0a0a0" stroke-width="1.5" stroke-linecap="round" stroke-linejoin="round"/></g><g transform="translate(199.5, 415.5) rotate(0, 40.5, 9.5)" width="81" height="19"><text text-decoration="none" x="3" fill="rgb(0, 0, 0)" font-size="10pt" font-family="Lato"  y="17">Customer&#160;</text><text text-decoration="none" x="65" fill="rgb(0, 0, 0)" font-size="10pt" font-family="Lato"  y="17">ID</text><text text-decoration="none" x="78" fill="#4b4b4b" font-size="10pt" font-family="noto_regular"  y="17"></text></g></g><g id="1r5w4nwxz8"><g><path d="M 360,500 L 290,425" fill="none" stroke="#a0a0a0" stroke-width="1.5" stroke-linecap="round" stroke-linejoin="round"/></g></g><g id="1rszbq9khl"><g transform="translate(220 330)"><ellipse cx="50" cy="25" rx="50" ry="25" fill="rgba(255,255,255,1)" stroke="#a0a0a0" stroke-width="1.5" stroke-linecap="round" stroke-linejoin="round"/></g><g transform="translate(251.5, 345.5) rotate(0, 18.5, 9.5)" width="37" height="19"><text text-decoration="none" x="1.5" fill="rgb(0, 0, 0)" font-size="10pt" font-family="Lato"  y="17">name</text><text text-decoration="none" x="35.5" fill="#4b4b4b" font-size="10pt" font-family="noto_regular"  y="17"></text></g></g><g id="17aizplgdo"><g><path d="M 360,500 L 300,375" fill="none" stroke="#a0a0a0" stroke-width="1.5" stroke-linecap="round" stroke-linejoin="round"/></g></g><g id="6waidn1u7m"><g transform="translate(310 270)"><ellipse cx="50" cy="25" rx="50" ry="25" fill="rgba(255,255,255,1)" stroke="#a0a0a0" stroke-width="1.5" stroke-linecap="round" stroke-linejoin="round"/></g><g transform="translate(341.5, 285.5) rotate(0, 18.5, 9.5)" width="37" height="19"><text text-decoration="none" x="2.5" fill="rgb(0, 0, 0)" font-size="10pt" font-family="Lato"  y="17">email</text><text text-decoration="none" x="34.5" fill="#4b4b4b" font-size="10pt" font-family="noto_regular"  y="17"></text></g></g><g id="2c6l2xmddl"><g><path d="M 360,500 L 360,320" fill="none" stroke="#a0a0a0" stroke-width="1.5" stroke-linecap="round" stroke-linejoin="round"/></g></g><g id="1vb2wrft3i"><g transform="translate(395 330)"><ellipse cx="50" cy="25" rx="50" ry="25" fill="rgba(255,255,255,1)" stroke="#a0a0a0" stroke-width="1.5" stroke-linecap="round" stroke-linejoin="round"/></g><g transform="translate(419.5, 345.5) rotate(0, 25.5, 9.5)" width="51" height="19"><text text-decoration="none" x="2" fill="rgb(0, 0, 0)" font-size="10pt" font-family="Lato"  y="17">address</text><text text-decoration="none" x="49" fill="#4b4b4b" font-size="10pt" font-family="noto_regular"  y="17"></text></g></g><g id="1sqpcu2w0o"><g><path d="M 360,500 L 415,375" fill="none" stroke="#a0a0a0" stroke-width="1.5" stroke-linecap="round" stroke-linejoin="round"/></g></g><g id="4r6oi80kiv"><g transform="translate(425 405)"><ellipse cx="50" cy="25" rx="50" ry="25" fill="rgba(255,255,255,1)" stroke="#a0a0a0" stroke-width="1.5" stroke-linecap="round" stroke-linejoin="round"/></g><g transform="translate(428, 420.5) rotate(0, 47, 9.5)" width="94" height="19"><text text-decoration="none" x="2" fill="rgb(0, 0, 0)" font-size="10pt" font-family="Lato"  y="17">phone&#160;</text><text text-decoration="none" x="44" fill="rgb(0, 0, 0)" font-size="10pt" font-family="Lato"  y="17">number</text><text text-decoration="none" x="92" fill="#4b4b4b" font-size="10pt" font-family="noto_regular"  y="17"></text></g></g><g id="2czvm110ir"><g><path d="M 360,500 L 425,430" fill="none" stroke="#a0a0a0" stroke-width="1.5" stroke-linecap="round" stroke-linejoin="round"/></g></g><g id="bql0jhl2uq"><g transform="translate(975 670)"><path d="M 130,30 L 65,60 L 0,30 L 65,0 L 130,30 L 130,30 Z" fill="rgba(255,255,255,1)" stroke="#a0a0a0" stroke-width="1.5" stroke-linecap="round" stroke-linejoin="round"/></g><g transform="translate(1031, 690.5) rotate(0, 9, 9.5)" width="18" height="19"><text text-decoration="none" x="0.5" fill="rgb(0, 0, 0)" font-size="10pt" font-family="Lato"  y="17">for</text><text text-decoration="none" x="17.5" fill="#4b4b4b" font-size="10pt" font-family="noto_regular"  y="17"></text></g></g><g id="1okdgmm0mr"><g transform="translate(475 645)"><ellipse cx="50" cy="25" rx="50" ry="25" fill="rgba(255,255,255,1)" stroke="#a0a0a0" stroke-width="1.5" stroke-linecap="round" stroke-linejoin="round"/></g><g transform="translate(487, 660.5) rotate(0, 38, 9.5)" width="76" height="19"><text text-decoration="none" x="3" fill="rgb(0, 0, 0)" font-size="10pt" font-family="Lato"  y="17">payment&#160;</text><text text-decoration="none" x="60" fill="rgb(0, 0, 0)" font-size="10pt" font-family="Lato"  y="17">ID</text><text text-decoration="none" x="73" fill="#4b4b4b" font-size="10pt" font-family="noto_regular"  y="17"></text></g></g><g id="5cu7uzinpt"><g><path d="M 620,710 L 575,670" fill="none" stroke="#a0a0a0" stroke-width="1.5" stroke-linecap="round" stroke-linejoin="round"/></g></g><g id="6dl89wgvyj"><g transform="translate(520 590)"><ellipse cx="50" cy="25" rx="50" ry="25" fill="rgba(255,255,255,1)" stroke="#a0a0a0" stroke-width="1.5" stroke-linecap="round" stroke-linejoin="round"/></g><g transform="translate(541, 597.5) rotate(0, 29, 17.5)" width="58" height="35"><text text-decoration="none" x="2" fill="rgb(0, 0, 0)" font-size="10pt" font-family="Lato"  y="14">payment&#160;</text><text text-decoration="none" x="5" fill="rgb(0, 0, 0)" font-size="10pt" font-family="Lato"  y="36">method</text><text text-decoration="none" x="53" fill="#4b4b4b" font-size="10pt" font-family="noto_regular"  y="36"></text></g></g><g id="62y5qihqr0"><g><path d="M 620,710 L 600,635" fill="none" stroke="#a0a0a0" stroke-width="1.5" stroke-linecap="round" stroke-linejoin="round"/></g></g><g id="22gx176yxl"><g transform="translate(630 590)"><ellipse cx="50" cy="24.801254272460938" rx="50" ry="24.801254272460938" fill="rgba(255,255,255,1)" stroke="#a0a0a0" stroke-width="1.5" stroke-linecap="round" stroke-linejoin="round"/></g><g transform="translate(634.5, 605.3012542724609) rotate(0, 45.5, 9.5)" width="91" height="19"><text text-decoration="none" x="3.5" fill="rgb(0, 0, 0)" font-size="10pt" font-family="Lato"  y="17">payment&#160;</text><text text-decoration="none" x="60.5" fill="rgb(0, 0, 0)" font-size="10pt" font-family="Lato"  y="17">date</text><text text-decoration="none" x="87.5" fill="#4b4b4b" font-size="10pt" font-family="noto_regular"  y="17"></text></g></g><g id="1sp0b16ft7"><g><path d="M 620,710 L 650,635" fill="none" stroke="#a0a0a0" stroke-width="1.5" stroke-linecap="round" stroke-linejoin="round"/></g></g><g id="1s1g9ueamh"><g transform="translate(665 645)"><ellipse cx="50" cy="24.801254272460938" rx="50" ry="24.801254272460938" fill="rgba(255,255,255,1)" stroke="#a0a0a0" stroke-width="1.5" stroke-linecap="round" stroke-linejoin="round"/></g><g transform="translate(676, 660.3012542724609) rotate(0, 39, 9.5)" width="78" height="19"><text text-decoration="none" x="2" fill="rgb(0, 0, 0)" font-size="10pt" font-family="Lato"  y="17">amount&#160;</text><text text-decoration="none" x="53" fill="rgb(0, 0, 0)" font-size="10pt" font-family="Lato"  y="17">due</text><text text-decoration="none" x="76" fill="#4b4b4b" font-size="10pt" font-family="noto_regular"  y="17"></text></g></g><g id="c3uqgs8fzc"><g><path d="M 620,710 L 665,670" fill="none" stroke="#a0a0a0" stroke-width="1.5" stroke-linecap="round" stroke-linejoin="round"/></g></g><g id="2n8c9dl6j5"><g transform="translate(755 705)"><path d="M 130,30 L 65,60 L 0,30 L 65,0 L 130,30 L 130,30 Z" fill="rgba(255,255,255,1)" stroke="#a0a0a0" stroke-width="1.5" stroke-linecap="round" stroke-linejoin="round"/></g><g transform="translate(808.5, 725.5) rotate(0, 11.5, 9.5)" width="23" height="19"><text text-decoration="none" x="1" fill="rgb(0, 0, 0)" font-size="10pt" font-family="Lato"  y="17">has</text><text text-decoration="none" x="22" fill="#4b4b4b" font-size="10pt" font-family="noto_regular"  y="17"></text></g></g><g id="3515341k02"><g transform="translate(570 710)"><rect x="0" y="0" width="100" height="50" fill="rgba(255,255,255,1)" stroke="#a0a0a0" stroke-width="1.5" stroke-linecap="round" stroke-linejoin="round"/></g><g transform="translate(584.5, 725.5) rotate(0, 35.5, 9.5)" width="71" height="19"><text text-decoration="none" x="2" fill="rgb(0, 0, 0)" font-size="12pt" font-family="Lato"  y="17">payment</text><text text-decoration="none" x="69" fill="#4b4b4b" font-size="10pt" font-family="noto_regular"  y="17"></text></g></g><g id="1st0t6clp1"><g transform="translate(955 505)"><rect x="0" y="0" width="170.00000476837158" height="75" fill="rgba(255,255,255,1)" stroke="#a0a0a0" stroke-width="1.5" stroke-linecap="round" stroke-linejoin="round"/></g><g transform="translate(991.0000023841858, 533) rotate(0, 49, 9.5)" width="98" height="19"><text text-decoration="none" x="1" fill="rgb(0, 0, 0)" font-size="12pt" font-family="Lato"  y="17">Subscription</text><text text-decoration="none" x="97" fill="#4b4b4b" font-size="10pt" font-family="noto_regular"  y="17"></text></g></g><g id="1zj26d0ynd"><g><path d="M 360.0000023841858,542.5000011920929 L 350,557.5000011920929 L 350,710" fill="none" stroke="#a0a0a0" stroke-width="1.5" stroke-linecap="round" stroke-linejoin="round"/></g></g><g id="2fwecfcc3y"><g transform="translate(275 500)"><rect x="0" y="0" width="170.00000476837158" height="85.00000238418579" fill="rgba(255,255,255,1)" stroke="#a0a0a0" stroke-width="1.5" stroke-linecap="round" stroke-linejoin="round"/></g><g transform="translate(307.0000023841858, 523.5000011920929) rotate(0, 53, 19)" width="106" height="38"><text text-decoration="none" x="15.5" fill="rgb(0, 0, 0)" font-size="12pt" font-family="Lato"  y="17">Customer</text><text text-decoration="none" x="90.5" fill="rgb(0, 0, 0)" font-size="12pt" font-family="Lato"  y="17"></text><text text-decoration="none" x="2.5" fill="rgb(0, 0, 0)" font-size="12pt" font-family="Lato"  y="39">User&#160;</text><text text-decoration="none" x="42.5" fill="rgb(0, 0, 0)" font-size="12pt" font-family="Lato"  y="39">account</text><text text-decoration="none" x="103.5" fill="#4b4b4b" font-size="10pt" font-family="noto_regular"  y="39"></text></g></g><g id="2kfe2kff8t"><g transform="translate(285 705)"><path d="M 130,30 L 65,60 L 0,30 L 65,0 L 130,30 L 130,30 Z" fill="rgba(255,255,255,1)" stroke="#a0a0a0" stroke-width="1.5" stroke-linecap="round" stroke-linejoin="round"/></g><g transform="translate(328, 725.5) rotate(0, 22, 9.5)" width="44" height="19"><text text-decoration="none" x="2.5" fill="rgb(0, 0, 0)" font-size="10pt" font-family="Lato"  y="17">makes</text><text text-decoration="none" x="41.5" fill="#4b4b4b" font-size="10pt" font-family="noto_regular"  y="17"></text></g></g><g id="2n32gr94fw"><g><path d="M 440,850 L 640,850" fill="none" stroke="#a0a0a0" stroke-width="1.5" stroke-linecap="round" stroke-linejoin="round"/></g></g><g id="anfxzsehun"><g><path d="M 770,850 L 955,850" fill="none" stroke="#a0a0a0" stroke-width="1.5" stroke-linecap="round" stroke-linejoin="round"/></g></g><g id="23p5geb60f"><g><path d="M 1040,580 L 1040,670" fill="none" stroke="#a0a0a0" stroke-width="1.5" stroke-linecap="round" stroke-linejoin="round"/></g></g><g id="cil7w3nnnc"><g><path d="M 1040,730 L 1040,805" fill="none" stroke="#a0a0a0" stroke-width="1.5" stroke-linecap="round" stroke-linejoin="round"/></g></g><g id="1h5x0nm6c4"><g><path d="M 780,545 L 955,545" fill="none" stroke="#a0a0a0" stroke-width="1.5" stroke-linecap="round" stroke-linejoin="round"/></g></g><g id="2upb40wvjv"><g><path d="M 885,735 L 1040,580" fill="none" stroke="#a0a0a0" stroke-width="1.5" stroke-linecap="round" stroke-linejoin="round"/></g></g><g id="yxw3bxubo3"><g><path d="M 670,735 L 755,735" fill="none" stroke="#a0a0a0" stroke-width="1.5" stroke-linecap="round" stroke-linejoin="round"/></g></g><g id="6lq4bf93tf"><g><path d="M 445,545 L 650,545" fill="none" stroke="#a0a0a0" stroke-width="1.5" stroke-linecap="round" stroke-linejoin="round"/></g></g><g id="1bbf00fewe"><g><path d="M 415,735 L 570,735" fill="none" stroke="#a0a0a0" stroke-width="1.5" stroke-linecap="round" stroke-linejoin="round"/></g></g></svg>